<svg width="150" height="34" viewBox="0 0 150 34" fill="none" xmlns="http://www.w3.org/2000/svg">
<path d="M20.1436 0.000329379C20.7962 0.000328494 21.4424 0.128497 22.0453 0.377503C22.6481 0.626508 23.1957 0.991463 23.6568 1.45149C24.1178 1.91151 24.4833 2.45758 24.7323 3.05844C24.9813 3.6593 25.1089 4.30317 25.1079 4.95321V28.257C25.135 28.9238 25.0267 29.5892 24.7892 30.2132C24.5518 30.8373 24.1902 31.4071 23.7262 31.8884C23.2622 32.3698 22.7053 32.7528 22.0889 33.0144C21.4726 33.276 20.8095 33.4109 20.1395 33.4109C19.4696 33.4109 18.8065 33.276 18.1902 33.0144C17.5738 32.7528 17.0169 32.3698 16.5529 31.8884C16.0888 31.4071 15.7273 30.8373 15.4898 30.2132C15.2524 29.5892 15.144 28.9238 15.1712 28.257V17.6495L15.1302 17.723C14.4949 18.8646 13.7486 19.9414 12.9021 20.9379C11.5514 22.4759 9.961 23.7874 8.1918 24.8218V26.8046C8.1918 27.8866 7.76027 28.9244 6.99214 29.6895C6.22401 30.4546 5.1822 30.8844 4.0959 30.8844C3.0096 30.8844 1.96779 30.4546 1.19966 29.6895C0.431531 28.9244 0 27.8866 0 26.8046L0 12.9333C0 11.8513 0.431531 10.8136 1.19966 10.0484C1.96779 9.28333 3.0096 8.85349 4.0959 8.85349C5.1822 8.85349 6.22401 9.28333 6.99214 10.0484C7.76027 10.8136 8.1918 11.8513 8.1918 12.9333V23.9243C9.61361 22.8644 10.8745 21.6057 11.9354 20.1872C13.5713 17.9556 14.6598 15.3735 15.1139 12.6477V4.95321C15.1138 4.29795 15.2443 3.6492 15.4978 3.04454C15.7512 2.43987 16.1226 1.89132 16.5905 1.43064C17.0583 0.969972 17.6132 0.606344 18.2232 0.360824C18.8331 0.115304 19.4858 -0.00722711 20.1436 0.000329379Z" fill="#231F20"/>
<path d="M54.369 29.0805C55.8358 29.0857 57.2488 28.5309 58.3174 27.5302C58.8317 27.0547 59.2392 26.4763 59.5134 25.833C59.7978 25.1846 59.9428 24.4842 59.9394 23.7767V12.0514H57.6785V18.9055C57.6802 19.4651 57.5302 20.0148 57.2443 20.4966C56.9518 20.9771 56.5362 21.3713 56.0401 21.6389C55.5369 21.9103 54.974 22.0532 54.4018 22.0551C53.8277 22.059 53.2628 21.9127 52.7634 21.6308C52.2717 21.35 51.8579 20.9518 51.5592 20.4721C51.2669 20.0012 51.111 19.4591 51.1086 18.9055V12.0514H48.8068V19.0523C48.802 19.7398 48.9503 20.4197 49.2409 21.0433C49.535 21.6647 49.9531 22.22 50.4697 22.6752C50.9834 23.1537 51.5839 23.5303 52.2391 23.7849C52.9164 24.0544 53.6397 24.1902 54.369 24.1847C54.9947 24.1837 55.6145 24.0646 56.1958 23.8339C56.7465 23.6312 57.2507 23.3204 57.6785 22.92V23.7359C57.681 24.1537 57.5973 24.5675 57.4327 24.9517C57.2761 25.3345 57.0354 25.6774 56.7282 25.9553C56.4183 26.2636 56.0504 26.508 55.6456 26.6747C55.2408 26.8413 54.807 26.9268 54.369 26.9263C53.8119 26.9276 53.2642 26.7842 52.7798 26.5102C52.2625 26.2123 51.8243 25.7955 51.5019 25.2944L49.4949 26.3715C50.0578 27.1946 50.7998 27.8807 51.6657 28.3787C52.4909 28.841 53.4222 29.0827 54.369 29.0805Z" fill="#231F20"/>
<path d="M37.5512 7.85791V13.284C37.9738 12.8809 38.4759 12.5696 39.0257 12.3702C39.6015 12.1405 40.2158 12.0214 40.8361 12.0193C41.5618 12.0149 42.2818 12.1479 42.9578 12.411C43.6068 12.6718 44.2013 13.0509 44.7108 13.5288C45.2274 13.9841 45.6455 14.5393 45.9396 15.1608C46.1965 15.7023 46.3361 16.2917 46.3492 16.8906V24.887H44.1046V16.9885C44.0587 16.5508 43.913 16.1294 43.6787 15.7564C43.3853 15.2752 42.9737 14.8765 42.4827 14.5977C41.9833 14.3158 41.4183 14.1695 40.8443 14.1734C40.2717 14.1725 39.7082 14.3156 39.2059 14.5896C38.7105 14.8551 38.297 15.25 38.0099 15.7319C37.7202 16.2121 37.5699 16.7629 37.5758 17.323V24.1771V24.887H35.3066V7.85791H37.5512Z" fill="#231F20"/>
<path d="M69.2043 12.0514C70.0488 12.0503 70.8848 12.2196 71.6618 12.5492C72.4419 12.87 73.1453 13.351 73.7261 13.9608C74.3192 14.5673 74.7893 15.2821 75.1106 16.0659C75.4464 16.8613 75.6164 17.7163 75.6103 18.5791C75.6163 19.4366 75.4462 20.2863 75.1106 21.0759C74.7849 21.8527 74.3153 22.5613 73.7261 23.1648C73.1407 23.7635 72.4419 24.2406 71.67 24.5682C70.8935 24.9004 70.0575 25.0725 69.2125 25.0741C68.3675 25.1079 67.5263 24.9459 66.7549 24.6009C66.0824 24.2575 65.497 23.7665 65.0428 23.1648L65.0019 23.1158V29.0805H62.7573V12.0596H65.0019V14.1892C65.5197 13.5523 66.1603 13.0252 66.886 12.6389C67.5963 12.2507 68.394 12.0485 69.2043 12.0514ZM69.2043 14.3687C68.642 14.3617 68.0843 14.47 67.5659 14.687C67.0654 14.8941 66.6135 15.2026 66.2388 15.5927C65.8637 15.9915 65.5615 16.4527 65.3459 16.9553C65.1264 17.4715 65.0149 18.0268 65.0183 18.5873C65.0109 19.1482 65.1225 19.7043 65.3459 20.2192C65.5616 20.7193 65.8638 21.1778 66.2388 21.5737C66.616 21.9629 67.0671 22.2736 67.5659 22.4875C68.0722 22.7082 68.6189 22.8221 69.1715 22.8221C69.7241 22.8221 70.2708 22.7082 70.7771 22.4875C71.2759 22.2736 71.727 21.9629 72.1042 21.5737C72.4796 21.1814 72.777 20.7218 72.9807 20.2192C73.1985 19.7028 73.3073 19.1473 73.3002 18.5873C73.3021 18.0277 73.1936 17.4732 72.9807 16.9553C72.777 16.4503 72.4797 15.988 72.1042 15.5927C71.7391 15.2062 71.2987 14.898 70.8099 14.687C70.3016 14.4744 69.7555 14.3661 69.2043 14.3687Z" fill="#231F20"/>
<path d="M84.2609 12.1416C85.1036 12.1432 85.938 12.3067 86.7185 12.623C87.4948 12.9357 88.1977 13.4052 88.7828 14.002C89.3836 14.5841 89.8608 15.2807 90.1859 16.0503C90.511 16.8199 90.6774 17.6467 90.6751 18.4816C90.6746 18.807 90.6472 19.1317 90.5932 19.4526H80.2797C80.2988 19.9122 80.4557 20.3556 80.7303 20.7255C81.0129 21.1501 81.3612 21.5274 81.7624 21.8434C82.4775 22.3971 83.3638 22.6856 84.2691 22.6593C84.8722 22.6919 85.475 22.5885 86.0324 22.3568C86.5898 22.1251 87.0875 21.7711 87.4885 21.3212H90.1099C89.4283 22.428 88.5111 23.3722 87.423 24.0873C86.4574 24.6609 85.3524 24.9601 84.2281 24.9522C83.3836 24.9533 82.5476 24.784 81.7706 24.4544C80.9987 24.1297 80.2976 23.6586 79.7063 23.0673C79.11 22.4774 78.6367 21.7758 78.3137 21.0029C77.9828 20.229 77.8128 19.3963 77.814 18.555C77.8146 17.714 77.9845 16.8817 78.3137 16.1072C78.6324 15.3296 79.1061 14.6246 79.7063 14.0346C80.287 13.4364 80.9875 12.9666 81.7624 12.6557C82.5538 12.3243 83.4025 12.1497 84.2609 12.1416ZM86.145 14.7119C85.5765 14.4289 84.9497 14.2816 84.3142 14.2816C83.6786 14.2816 83.0518 14.4289 82.4833 14.7119C81.9126 14.9554 81.4116 15.3364 81.0255 15.8207C80.6394 16.305 80.3803 16.8773 80.2715 17.4861H88.2503C88.1565 16.8835 87.9155 16.3131 87.5484 15.825C87.1813 15.337 86.6993 14.9463 86.145 14.6874V14.7119Z" fill="#231F20"/>
<path d="M141.956 24.862L141.89 12.7532H139.646V19.5828C139.652 20.143 139.502 20.6941 139.211 21.1739C138.924 21.6558 138.511 22.0507 138.015 22.3162C137.513 22.5902 136.95 22.7333 136.377 22.7324C135.803 22.7363 135.238 22.59 134.739 22.3081C134.244 22.0315 133.828 21.636 133.526 21.1576C133.23 20.6887 133.073 20.1452 133.076 19.5909V12.7532H130.823V19.7378C130.821 20.4249 130.97 21.1042 131.257 21.7287C131.548 22.3498 131.964 22.9051 132.478 23.3607C132.99 23.8392 133.587 24.2183 134.239 24.4785C134.915 24.7416 135.635 24.8745 136.361 24.8702C136.98 24.868 137.594 24.7518 138.171 24.5275C138.72 24.322 139.221 24.0084 139.646 23.6054V24.8457C139.646 24.8457 140.391 24.8457 141.956 24.862Z" fill="#231F20"/>
<path d="M109.68 24.8872C110.671 24.8872 111.648 24.6571 112.534 24.2151C113.42 23.7732 114.19 23.1316 114.783 22.3414L112.793 21.2153C112.402 21.6539 111.923 22.005 111.387 22.2455C110.85 22.4861 110.268 22.6105 109.68 22.6106C109.131 22.614 108.588 22.5057 108.082 22.2924C107.593 22.0887 107.148 21.7922 106.772 21.4193C106.391 21.0374 106.088 20.5858 105.879 20.0893C105.657 19.5836 105.543 19.0378 105.543 18.486C105.543 17.9342 105.657 17.3883 105.879 16.8826C106.088 16.3886 106.391 15.9397 106.772 15.5607C107.153 15.1797 107.606 14.8775 108.106 14.6717C108.605 14.4658 109.14 14.3603 109.68 14.3613C110.269 14.3609 110.852 14.4859 111.389 14.7279C111.925 14.97 112.404 15.3235 112.793 15.7647L114.783 14.6142C114.19 13.8239 113.42 13.1824 112.534 12.7405C111.648 12.2985 110.671 12.0684 109.68 12.0684C108.835 12.0643 107.998 12.2337 107.222 12.5662C106.455 12.8952 105.758 13.3659 105.166 13.9533C104.585 14.5423 104.123 15.2377 103.806 16.0014C103.317 17.175 103.185 18.4659 103.427 19.7136C103.669 20.9614 104.274 22.1107 105.166 23.0186C105.755 23.6087 106.454 24.0797 107.222 24.4057C108 24.7326 108.836 24.8965 109.68 24.8872Z" fill="#231F20"/>
<path d="M122.385 11.9625C123.251 11.9608 124.109 12.13 124.908 12.4603C125.693 12.7787 126.406 13.2502 127.006 13.8472C127.605 14.4441 128.078 15.1544 128.398 15.9363C128.73 16.7329 128.9 17.587 128.898 18.4494C128.895 19.2902 128.725 20.1222 128.398 20.8973C128.072 21.6661 127.599 22.3645 127.005 22.9535C126.404 23.5513 125.692 24.0278 124.908 24.357C124.11 24.6932 123.252 24.8653 122.385 24.8629C121.54 24.8612 120.704 24.6891 119.928 24.357C118.374 23.6798 117.134 22.4446 116.454 20.8973C116.121 20.1239 115.948 19.2912 115.947 18.4494C115.944 17.5862 116.117 16.7313 116.454 15.9363C116.78 15.1669 117.25 14.4664 117.839 13.8719C118.43 13.2806 119.131 12.8095 119.903 12.4848C120.687 12.1474 121.531 11.9698 122.385 11.9625ZM122.385 14.2309C121.837 14.2236 121.293 14.3285 120.787 14.539C120.282 14.7495 119.824 15.0612 119.444 15.4548C119.048 15.8449 118.736 16.3113 118.527 16.8257C118.306 17.3415 118.191 17.8966 118.191 18.4576C118.188 19.0189 118.302 19.5748 118.527 20.0895C118.745 20.5921 119.056 21.0489 119.444 21.4358C119.831 21.821 120.287 22.1309 120.788 22.3497C121.303 22.5777 121.862 22.6918 122.426 22.6843C122.989 22.6839 123.547 22.5701 124.065 22.3497C124.549 22.1256 124.982 21.8032 125.334 21.4032C125.713 21.0114 126.018 20.5555 126.235 20.0569C126.458 19.5417 126.57 18.9857 126.563 18.4249C126.566 17.8645 126.454 17.3094 126.235 16.793C126.026 16.2828 125.72 15.8174 125.334 15.4222C124.96 15.0283 124.504 14.7194 123.999 14.5165C123.484 14.3199 122.937 14.223 122.385 14.2309Z" fill="#231F20"/>
<path d="M148.075 24.7978V14.2719H150V11.979H148.075V7.77686H145.888V11.979H143.954V14.2719H145.888V24.7978H148.075Z" fill="#231F20"/>
<path d="M97.1876 24.8865C98.4019 24.9315 99.5935 24.5503 100.554 23.8094C100.971 23.5012 101.31 23.1001 101.543 22.6382C101.776 22.1763 101.898 21.6665 101.898 21.1494C101.898 19.3325 100.735 18.1276 98.4082 17.5347L96.6633 17.0696C95.4018 16.7759 94.771 16.2536 94.771 15.5927C94.7805 15.3687 94.8482 15.151 94.9674 14.9608C95.0865 14.7706 95.2531 14.6145 95.4509 14.5075C95.9126 14.2129 96.4509 14.0597 96.9992 14.0669C97.5878 14.0582 98.1679 14.2075 98.6785 14.4993C99.1662 14.7626 99.5502 15.1824 99.768 15.6906L101.726 14.8747C101.389 14.0172 100.771 13.2982 99.9728 12.8348C99.1281 12.319 98.1537 12.053 97.163 12.0678C95.9639 12.0116 94.7807 12.3594 93.8044 13.0551C93.389 13.3581 93.0535 13.757 92.8267 14.2174C92.5998 14.6778 92.4884 15.1861 92.5019 15.6988C92.5019 17.3688 93.6405 18.5003 95.9179 19.0932L97.9248 19.6072C99.0717 19.9663 99.6451 20.5374 99.6451 21.3044C99.6349 21.5345 99.5645 21.7579 99.441 21.9526C99.3174 22.1472 99.1449 22.3063 98.9406 22.4141C98.4162 22.7405 97.8055 22.9025 97.1876 22.8792C96.5368 22.8793 95.9039 22.6672 95.3854 22.2754C94.8103 21.8486 94.3721 21.2647 94.1239 20.5946L92.166 21.4513C92.5382 22.4751 93.2223 23.3573 94.1227 23.9747C95.0231 24.5921 96.0947 24.9138 97.1876 24.8947V24.8865Z" fill="#231F20"/>
</svg>
