<svg width="15" height="16" viewBox="0 0 15 16" fill="none" xmlns="http://www.w3.org/2000/svg">
<path d="M14.1687 0.5H0.83125C0.611294 0.501635 0.400811 0.589738 0.245275 0.745275C0.0897384 0.900811 0.00163543 1.11129 0 1.33125V14.6687C0.00163543 14.8887 0.0897384 15.0992 0.245275 15.2547C0.400811 15.4103 0.611294 15.4984 0.83125 15.5H8.0125V9.7H6.0625V7.43125H8.0125V5.7625C8.0125 3.825 9.19375 2.76875 10.9312 2.76875C11.5125 2.76875 12.0938 2.76875 12.675 2.85625V4.875H11.4813C10.5375 4.875 10.3562 5.325 10.3562 5.98125V7.425H12.6062L12.3125 9.69375H10.3562V15.5H14.1687C14.3887 15.4984 14.5992 15.4103 14.7547 15.2547C14.9103 15.0992 14.9984 14.8887 15 14.6687V1.33125C14.9984 1.11129 14.9103 0.900811 14.7547 0.745275C14.5992 0.589738 14.3887 0.501635 14.1687 0.5Z" fill="#637381"/>
</svg>
