<svg width="15" height="16" viewBox="0 0 15 16" fill="none" xmlns="http://www.w3.org/2000/svg">
<path d="M11.5037 4.89652C12.0007 4.89652 12.4037 4.49358 12.4037 3.99652C12.4037 3.49947 12.0007 3.09652 11.5037 3.09652C11.0066 3.09652 10.6037 3.49947 10.6037 3.99652C10.6037 4.49358 11.0066 4.89652 11.5037 4.89652Z" fill="#637381"/>
<path d="M7.50039 4.14861C6.73866 4.14861 5.99403 4.37449 5.36068 4.79768C4.72732 5.22087 4.23368 5.82238 3.94218 6.52612C3.65068 7.22987 3.57441 8.00425 3.72302 8.75135C3.87162 9.49844 4.23843 10.1847 4.77705 10.7233C5.31568 11.2619 6.00193 11.6287 6.74902 11.7774C7.49611 11.926 8.2705 11.8497 8.97425 11.5582C9.67799 11.2667 10.2795 10.773 10.7027 10.1397C11.1259 9.50633 11.3518 8.76171 11.3518 7.99998C11.3518 6.97853 10.946 5.99892 10.2237 5.27665C9.50145 4.55437 8.52184 4.14861 7.50039 4.14861ZM7.50039 10.5C7.00593 10.5 6.52258 10.3534 6.11146 10.0787C5.70034 9.80395 5.37991 9.4135 5.19069 8.95669C5.00147 8.49987 4.95196 7.99721 5.04842 7.51226C5.14489 7.0273 5.38299 6.58185 5.73262 6.23221C6.08225 5.88258 6.52771 5.64448 7.01266 5.54802C7.49761 5.45155 8.00028 5.50106 8.4571 5.69028C8.91391 5.8795 9.30436 6.19993 9.57906 6.61106C9.85376 7.02218 10.0004 7.50553 10.0004 7.99998C10.0004 8.66302 9.73699 9.29891 9.26815 9.76775C8.79931 10.2366 8.16343 10.5 7.50039 10.5Z" fill="#637381"/>
<path d="M7.5 1.85137C9.50256 1.85137 9.73981 1.859 10.5306 1.89513C11.0062 1.90079 11.4773 1.98814 11.9233 2.15338C12.2467 2.27818 12.5405 2.4693 12.7856 2.71444C13.0308 2.95958 13.2219 3.25331 13.3467 3.57675C13.5119 4.02276 13.5993 4.49384 13.6049 4.96944C13.641 5.76025 13.6487 5.9975 13.6487 8.00006C13.6487 10.0026 13.6411 10.2399 13.6049 11.0307C13.5993 11.5063 13.5119 11.9774 13.3467 12.4234C13.2219 12.7468 13.0308 13.0405 12.7856 13.2857C12.5405 13.5308 12.2467 13.7219 11.9233 13.8467C11.4773 14.012 11.0062 14.0993 10.5306 14.105C9.73988 14.1411 9.50275 14.1487 7.5 14.1487C5.49725 14.1487 5.26012 14.1411 4.46937 14.105C3.99378 14.0993 3.52269 14.012 3.07669 13.8467C2.75325 13.7219 2.45951 13.5308 2.21437 13.2857C1.96923 13.0405 1.77812 12.7468 1.65331 12.4234C1.48808 11.9774 1.40072 11.5063 1.39506 11.0307C1.359 10.2399 1.35131 10.0026 1.35131 8.00006C1.35131 5.9975 1.35894 5.76025 1.39506 4.96944C1.40072 4.49384 1.48808 4.02276 1.65331 3.57675C1.77811 3.2533 1.96922 2.95955 2.21436 2.7144C2.45951 2.46925 2.75324 2.27812 3.07669 2.15331C3.52269 1.98808 3.99378 1.90072 4.46937 1.89506C5.26019 1.859 5.49744 1.85137 7.5 1.85137ZM7.5 0.5C5.46312 0.5 5.20769 0.508625 4.40775 0.545125C3.78566 0.557614 3.17018 0.675493 2.5875 0.89375C2.08921 1.08645 1.63667 1.38112 1.2589 1.7589C0.881124 2.13667 0.586446 2.58921 0.39375 3.0875C0.175459 3.67028 0.0575791 4.28586 0.0451249 4.90806C0.00862489 5.70769 0 5.96312 0 8C0 10.0369 0.00862489 10.2923 0.0451249 11.0922C0.0575863 11.7144 0.175466 12.33 0.39375 12.9128C0.586446 13.4111 0.881124 13.8636 1.2589 14.2414C1.63667 14.6192 2.08921 14.9139 2.5875 15.1066C3.17028 15.3249 3.78586 15.4427 4.40806 15.4552C5.20769 15.4914 5.46312 15.5 7.5 15.5C9.53687 15.5 9.79231 15.4914 10.5922 15.4549C11.2144 15.4424 11.83 15.3245 12.4128 15.1062C12.9111 14.9136 13.3636 14.6189 13.7414 14.2411C14.1192 13.8633 14.4139 13.4108 14.6066 12.9125C14.8248 12.3297 14.9427 11.7141 14.9552 11.0919C14.9914 10.2923 15 10.0369 15 8C15 5.96312 14.9914 5.70769 14.9549 4.90775C14.9424 4.28566 14.8245 3.67018 14.6062 3.0875C14.4135 2.58927 14.1188 2.13679 13.7411 1.75907C13.3633 1.38135 12.9108 1.08672 12.4125 0.894062C11.8297 0.675778 11.2141 0.557899 10.5919 0.545438C9.79231 0.508625 9.53687 0.5 7.5 0.5Z" fill="#637381"/>
</svg>
