<svg width="15" height="16" viewBox="0 0 15 16" fill="none" xmlns="http://www.w3.org/2000/svg">
<path d="M13.875 0.5H1.125C0.5 0.5 0 1 0 1.5625V14.375C0 14.9375 0.5 15.4375 1.125 15.4375H13.875C14.5 15.4375 15 14.9375 15 14.375V1.5625C15 1 14.5 0.5 13.875 0.5ZM4.4375 13.25H2.25V6.125H4.4375V13.25ZM3.375 5.125C2.6875 5.125 2.0625 4.5625 2.0625 3.8125C2.0625 3.0625 2.625 2.5 3.375 2.5C4.0625 2.5 4.6875 3.0625 4.6875 3.8125C4.6875 4.5625 4.0625 5.125 3.375 5.125ZM12.8125 13.1875H10.625V9.6875C10.625 8.875 10.625 7.75 9.4375 7.75C8.25 7.75 8.125 8.6875 8.125 9.5625V13.125H5.9375V6.125H8V7.0625H8.0625C8.375 6.5 9.125 5.875 10.1875 5.875C12.4375 5.875 12.875 7.375 12.875 9.3125V13.1875H12.8125Z" fill="#637381"/>
</svg>
