<svg width="150" height="39" viewBox="0 0 150 39" fill="none" xmlns="http://www.w3.org/2000/svg">
<path d="M26.5812 4.87529C27.1441 4.87529 27.7015 4.98746 28.2215 5.2054C28.7415 5.42333 29.2138 5.74275 29.6115 6.14537C30.0092 6.54799 30.3245 7.02592 30.5393 7.55181C30.754 8.07769 30.8641 8.64122 30.8632 9.21015V29.6061C30.8866 30.1897 30.7931 30.7721 30.5883 31.3182C30.3835 31.8644 30.0717 32.3631 29.6714 32.7844C29.2711 33.2057 28.7908 33.5409 28.2591 33.7699C27.7275 33.9988 27.1556 34.1169 26.5777 34.1169C25.9998 34.1169 25.4278 33.9988 24.8962 33.7699C24.3646 33.5409 23.8842 33.2057 23.484 32.7844C23.0837 32.3631 22.7718 31.8644 22.567 31.3182C22.3622 30.7721 22.2687 30.1897 22.2922 29.6061V20.3222L22.2569 20.3865C21.7088 21.3857 21.0651 22.3281 20.3349 23.2002C19.1699 24.5464 17.798 25.6942 16.272 26.5996V28.3349C16.272 29.2819 15.8998 30.1902 15.2372 30.8598C14.5747 31.5295 13.676 31.9057 12.739 31.9057C11.802 31.9057 10.9034 31.5295 10.2408 30.8598C9.57828 30.1902 9.20605 29.2819 9.20605 28.3349V16.1945C9.20605 15.2475 9.57828 14.3392 10.2408 13.6696C10.9034 13 11.802 12.6238 12.739 12.6238C13.676 12.6238 14.5747 13 15.2372 13.6696C15.8998 14.3392 16.272 15.2475 16.272 16.1945V25.814C17.4984 24.8864 18.586 23.7848 19.5011 22.5432C20.9121 20.5901 21.851 18.3302 22.2427 15.9445V9.21015C22.2427 8.63665 22.3552 8.06885 22.5739 7.53964C22.7925 7.01043 23.1129 6.53032 23.5164 6.12713C23.9199 5.72394 24.3986 5.40568 24.9247 5.1908C25.4508 4.97592 26.0138 4.86867 26.5812 4.87529Z" fill="white"/>
<path d="M56.585 30.3265C57.9406 30.3312 59.2465 29.8372 60.2341 28.9461C60.7093 28.5227 61.086 28.0078 61.3394 27.4349C61.6022 26.8577 61.7363 26.2341 61.7331 25.6041V15.1641H59.6436V21.2668C59.6451 21.7651 59.5065 22.2545 59.2423 22.6835C58.972 23.1113 58.5879 23.4624 58.1294 23.7006C57.6643 23.9422 57.1441 24.0695 56.6153 24.0712C56.0848 24.0747 55.5626 23.9444 55.1011 23.6934C54.6467 23.4434 54.2643 23.0889 53.9882 22.6617C53.7181 22.2425 53.574 21.7597 53.5718 21.2668V15.1641H51.4444V21.3976C51.44 22.0097 51.5771 22.6151 51.8457 23.1703C52.1175 23.7236 52.5039 24.218 52.9813 24.6233C53.4561 25.0493 54.0111 25.3847 54.6166 25.6114C55.2425 25.8513 55.911 25.9722 56.585 25.9674C57.1632 25.9664 57.7361 25.8604 58.2733 25.655C58.7822 25.4746 59.2482 25.1978 59.6436 24.8413V25.5678C59.6459 25.9397 59.5686 26.3082 59.4164 26.6503C59.2717 26.9911 59.0492 27.2965 58.7654 27.5439C58.4789 27.8184 58.1389 28.036 57.7648 28.1844C57.3907 28.3327 56.9898 28.4089 56.585 28.4085C56.0702 28.4096 55.5639 28.2819 55.1163 28.038C54.6382 27.7727 54.2332 27.4016 53.9352 26.9554L52.0804 27.9144C52.6007 28.6473 53.2864 29.2582 54.0866 29.7017C54.8493 30.1132 55.71 30.3285 56.585 30.3265Z" fill="white"/>
<path d="M42.0535 11.375V16.2064C42.4265 15.8474 42.8698 15.5703 43.3551 15.3927C43.8634 15.1881 44.4056 15.0821 44.9531 15.0802C45.5938 15.0764 46.2293 15.1947 46.826 15.429C47.3989 15.6612 47.9237 15.9987 48.3734 16.4243C48.8294 16.8296 49.1984 17.324 49.458 17.8773C49.6848 18.3596 49.808 18.8844 49.8196 19.4176V26.5375H47.8383V19.5047C47.7978 19.1151 47.6691 18.7398 47.4623 18.4077C47.2033 17.9793 46.84 17.6242 46.4066 17.376C45.9658 17.125 45.467 16.9947 44.9604 16.9983C44.4549 16.9974 43.9575 17.1249 43.5142 17.3688C43.0769 17.6052 42.7119 17.9568 42.4585 18.3859C42.2027 18.8134 42.0701 19.3039 42.0752 19.8026V25.9054V26.5375H40.0723V11.375H42.0535Z" fill="white"/>
<path d="M69.6034 15.1641C70.3506 15.1631 71.0902 15.3138 71.7777 15.6073C72.4679 15.8929 73.0902 16.3212 73.6041 16.8641C74.1288 17.4042 74.5447 18.0406 74.829 18.7386C75.1262 19.4467 75.2766 20.208 75.2711 20.9762C75.2764 21.7397 75.126 22.4963 74.829 23.1994C74.5409 23.891 74.1254 24.5219 73.6041 25.0593C73.0862 25.5924 72.4679 26.0171 71.7849 26.3089C71.0979 26.6046 70.3583 26.7579 69.6106 26.7593C68.8631 26.7894 68.1188 26.6452 67.4363 26.3379C66.8413 26.0322 66.3233 25.595 65.9215 25.0593L65.8853 25.0157V30.3265H63.8994V15.1714H65.8853V17.0676C66.3434 16.5005 66.9102 16.0311 67.5523 15.6872C68.1808 15.3415 68.8865 15.1615 69.6034 15.1641ZM69.6034 17.2274C69.1059 17.2211 68.6125 17.3176 68.1538 17.5107C67.711 17.6952 67.3112 17.9698 66.9797 18.3172C66.6478 18.6723 66.3804 19.0829 66.1897 19.5305C65.9955 19.99 65.8968 20.4844 65.8998 20.9835C65.8932 21.4829 65.992 21.9781 66.1897 22.4365C66.3805 22.8819 66.6479 23.2901 66.9797 23.6426C67.3134 23.9891 67.7125 24.2657 68.1538 24.4563C68.6018 24.6527 69.0854 24.7541 69.5744 24.7541C70.0633 24.7541 70.547 24.6527 70.9949 24.4563C71.4363 24.2657 71.8354 23.9891 72.1691 23.6426C72.5012 23.2932 72.7644 22.884 72.9446 22.4365C73.1373 21.9768 73.2335 21.4822 73.2273 20.9835C73.229 20.4853 73.1329 19.9915 72.9446 19.5305C72.7644 19.0808 72.5013 18.6692 72.1691 18.3172C71.8461 17.9731 71.4564 17.6987 71.0239 17.5107C70.5743 17.3214 70.0911 17.2251 69.6034 17.2274Z" fill="white"/>
<path d="M82.5959 15.1641C83.341 15.1655 84.0788 15.3106 84.7689 15.5914C85.4553 15.869 86.0768 16.2858 86.5941 16.8155C87.1254 17.3323 87.5473 17.9506 87.8348 18.6337C88.1222 19.3169 88.2693 20.0508 88.2673 20.792C88.2669 21.0808 88.2427 21.3691 88.1949 21.6539H79.0757C79.0926 22.0619 79.2313 22.4555 79.4741 22.7838C79.724 23.1607 80.032 23.4957 80.3867 23.7761C81.019 24.2677 81.8026 24.5238 82.6032 24.5005C83.1364 24.5294 83.6694 24.4376 84.1622 24.2319C84.6551 24.0262 85.0952 23.712 85.4497 23.3126H87.7675C87.1649 24.2951 86.3539 25.1333 85.3918 25.768C84.538 26.2772 83.561 26.5428 82.5669 26.5358C81.8202 26.5368 81.081 26.3865 80.394 26.0939C79.7115 25.8057 79.0916 25.3875 78.5687 24.8626C78.0414 24.3389 77.623 23.7161 77.3373 23.0301C77.0448 22.3431 76.8945 21.6039 76.8955 20.8572C76.8961 20.1106 77.0463 19.3717 77.3373 18.6842C77.6192 17.994 78.0381 17.3681 78.5687 16.8445C79.0821 16.3134 79.7016 15.8964 80.3867 15.6204C81.0865 15.3263 81.8369 15.1713 82.5959 15.1641ZM84.2618 17.4456C83.7592 17.1945 83.2049 17.0637 82.643 17.0637C82.081 17.0637 81.5268 17.1945 81.0241 17.4456C80.5195 17.6618 80.0766 18 79.7352 18.4299C79.3938 18.8598 79.1647 19.3678 79.0685 19.9083H86.1233C86.0404 19.3734 85.8273 18.867 85.5027 18.4338C85.1781 18.0006 84.752 17.6538 84.2618 17.4239V17.4456Z" fill="white"/>
<path d="M133.755 26.5279L133.698 16.2461H131.732V22.0452C131.738 22.5209 131.607 22.9888 131.352 23.3962C131.101 23.8055 130.739 24.1408 130.305 24.3662C129.865 24.5988 129.372 24.7204 128.871 24.7196C128.368 24.7229 127.873 24.5987 127.436 24.3593C127.003 24.1245 126.638 23.7886 126.375 23.3824C126.115 22.9842 125.978 22.5228 125.98 22.0521V16.2461H124.008V22.1768C124.006 22.7603 124.136 23.3371 124.388 23.8674C124.643 24.3947 125.006 24.8662 125.457 25.2531C125.905 25.6594 126.428 25.9813 126.999 26.2023C127.591 26.4257 128.221 26.5385 128.856 26.5348C129.399 26.5329 129.936 26.4343 130.441 26.2438C130.922 26.0694 131.361 25.8031 131.732 25.4609V26.514C131.732 26.514 132.385 26.514 133.755 26.5279Z" fill="white"/>
<path d="M105.352 26.5356C106.241 26.5356 107.117 26.3315 107.911 25.9394C108.706 25.5474 109.396 24.9783 109.928 24.2772L108.144 23.2783C107.793 23.6674 107.364 23.9788 106.883 24.1922C106.401 24.4056 105.88 24.5159 105.352 24.5161C104.86 24.519 104.373 24.423 103.92 24.2338C103.481 24.0531 103.082 23.79 102.745 23.4593C102.403 23.1205 102.131 22.7199 101.944 22.2794C101.745 21.8308 101.642 21.3466 101.642 20.8571C101.642 20.3676 101.745 19.8834 101.944 19.4348C102.131 18.9965 102.403 18.5983 102.745 18.2621C103.087 17.9241 103.493 17.6561 103.941 17.4734C104.388 17.2908 104.868 17.1973 105.352 17.1981C105.881 17.1977 106.403 17.3086 106.884 17.5234C107.366 17.7381 107.795 18.0516 108.144 18.4431L109.928 17.4225C109.396 16.7214 108.706 16.1523 107.911 15.7603C107.117 15.3682 106.241 15.1641 105.352 15.1641C104.595 15.1604 103.845 15.3108 103.149 15.6057C102.461 15.8975 101.835 16.3151 101.305 16.8362C100.783 17.3586 100.369 17.9756 100.086 18.653C99.6468 19.6941 99.5285 20.8393 99.7454 21.9462C99.9622 23.053 100.505 24.0726 101.305 24.878C101.833 25.4015 102.459 25.8193 103.149 26.1085C103.846 26.3985 104.596 26.5438 105.352 26.5356Z" fill="white"/>
<path d="M116.123 15.1641C116.883 15.1626 117.636 15.3117 118.339 15.6028C119.028 15.8835 119.654 16.2992 120.18 16.8254C120.706 17.3516 121.122 17.9777 121.403 18.667C121.694 19.3692 121.843 20.1222 121.842 20.8823C121.839 21.6235 121.69 22.3569 121.403 23.0402C121.117 23.7179 120.701 24.3335 120.18 24.8528C119.651 25.3797 119.026 25.7998 118.339 26.0899C117.638 26.3863 116.884 26.538 116.123 26.5359C115.381 26.5344 114.647 26.3827 113.965 26.0899C112.602 25.493 111.513 24.4041 110.916 23.0402C110.623 22.3584 110.471 21.6244 110.47 20.8823C110.468 20.1214 110.619 19.3678 110.916 18.667C111.202 17.9888 111.614 17.3712 112.131 16.8472C112.651 16.326 113.266 15.9107 113.944 15.6244C114.632 15.327 115.373 15.1705 116.123 15.1641ZM116.123 17.1637C115.642 17.1572 115.164 17.2497 114.72 17.4353C114.276 17.6208 113.875 17.8956 113.541 18.2426C113.193 18.5864 112.919 18.9976 112.735 19.451C112.541 19.9057 112.441 20.395 112.441 20.8895C112.437 21.3844 112.538 21.8744 112.735 22.3281C112.926 22.7711 113.2 23.1738 113.541 23.5149C113.881 23.8544 114.281 24.1276 114.721 24.3205C115.173 24.5215 115.664 24.6221 116.159 24.6154C116.654 24.6151 117.143 24.5148 117.598 24.3205C118.023 24.1229 118.403 23.8388 118.713 23.4861C119.045 23.1408 119.313 22.7388 119.504 22.2993C119.699 21.8452 119.797 21.3551 119.792 20.8608C119.794 20.3667 119.696 19.8774 119.504 19.4222C119.32 18.9724 119.051 18.5622 118.713 18.2138C118.384 17.8666 117.984 17.5943 117.54 17.4154C117.088 17.2421 116.607 17.1567 116.123 17.1637Z" fill="white"/>
<path d="M139.07 26.5375V17.1609H140.794V15.1184H139.07V11.375H137.111V15.1184H135.379V17.1609H137.111V26.5375H139.07Z" fill="white"/>
<path d="M94.3623 26.528C95.4434 26.5678 96.5043 26.2301 97.3598 25.5736C97.7309 25.3005 98.0323 24.9451 98.24 24.5358C98.4477 24.1265 98.5559 23.6747 98.5559 23.2165C98.5559 21.6066 97.5202 20.5389 95.449 20.0135L93.8955 19.6014C92.7724 19.3411 92.2108 18.8784 92.2108 18.2927C92.2193 18.0943 92.2795 17.9013 92.3856 17.7328C92.4917 17.5643 92.64 17.4259 92.8162 17.3311C93.2272 17.0701 93.7065 16.9343 94.1946 16.9407C94.7186 16.933 95.2351 17.0653 95.6897 17.3239C96.1239 17.5571 96.4658 17.9292 96.6596 18.3795L98.4027 17.6565C98.1031 16.8966 97.553 16.2596 96.842 15.8489C96.09 15.3919 95.2224 15.1562 94.3404 15.1693C93.2728 15.1195 92.2195 15.4277 91.3502 16.0441C90.9804 16.3127 90.6817 16.6661 90.4798 17.074C90.2778 17.482 90.1786 17.9324 90.1906 18.3867C90.1906 19.8665 91.2044 20.8691 93.2319 21.3945L95.0187 21.85C96.0397 22.1681 96.5502 22.6742 96.5502 23.3539C96.5412 23.5578 96.4785 23.7557 96.3685 23.9282C96.2585 24.1007 96.1049 24.2417 95.923 24.3372C95.4561 24.6264 94.9124 24.7699 94.3623 24.7493C93.7829 24.7493 93.2194 24.5614 92.7578 24.2143C92.2458 23.8361 91.8557 23.3187 91.6347 22.7249L89.8916 23.484C90.2229 24.3912 90.832 25.173 91.6336 25.72C92.4352 26.2671 93.3893 26.5521 94.3623 26.5352V26.528Z" fill="white"/>
</svg>
