<svg width="15" height="12" viewBox="0 0 15 12" fill="none" xmlns="http://www.w3.org/2000/svg">
<path d="M4.95 11.5875C6.00571 11.5942 7.05224 11.3911 8.02887 10.9902C9.00551 10.5892 9.89282 9.99836 10.6393 9.25184C11.3858 8.50533 11.9767 7.61802 12.3777 6.64138C12.7786 5.66475 12.9816 4.61822 12.975 3.56251C12.975 3.43751 12.975 3.31876 12.975 3.19376C13.5222 2.79282 13.9959 2.30012 14.375 1.73751C13.8597 1.96288 13.3144 2.11235 12.7563 2.18126C13.3481 1.82862 13.7921 1.27355 14.0063 0.618761C13.4547 0.949661 12.8499 1.18228 12.2188 1.30626C11.7937 0.853365 11.2313 0.55317 10.6184 0.452127C10.0056 0.351083 9.37653 0.454823 8.82859 0.747294C8.28065 1.03977 7.84437 1.50467 7.58725 2.07006C7.33014 2.63545 7.26652 3.26982 7.40625 3.87501C6.28502 3.81998 5.18794 3.5294 4.18647 3.0222C3.185 2.515 2.30159 1.80256 1.59375 0.931261C1.23683 1.55074 1.12864 2.28271 1.2911 2.97896C1.45356 3.67521 1.87452 4.28371 2.46875 4.68126C2.03038 4.66435 1.60216 4.54445 1.21875 4.33126V4.36251C1.21485 5.00991 1.43295 5.63908 1.83669 6.14518C2.24043 6.65127 2.80542 7.00372 3.4375 7.14376C3.02977 7.25342 2.60268 7.27051 2.1875 7.19376C2.37049 7.74588 2.7198 8.22787 3.18753 8.57363C3.65526 8.91939 4.21849 9.11199 4.8 9.12501C3.80576 9.92534 2.57006 10.3659 1.29375 10.375C1.06997 10.3685 0.846717 10.3498 0.625 10.3188C1.91685 11.1418 3.41825 11.5758 4.95 11.5688" fill="#637381"/>
</svg>
